<?xml version="1.0" standalone="no"?>
<!DOCTYPE svg PUBLIC "-//W3C//DTD SVG 20010904//EN"
 "http://www.w3.org/TR/2001/REC-SVG-20010904/DTD/svg10.dtd">
<svg version="1.0" xmlns="http://www.w3.org/2000/svg"
 width="500.000000pt" height="500.000000pt" viewBox="0 0 500.000000 500.000000"
 preserveAspectRatio="xMidYMid meet">

<g transform="translate(0.000000,500.000000) scale(0.100000,-0.100000)"
fill="#000000" stroke="none">
<path d="M0 2500 l0 -2500 2500 0 2500 0 0 2500 0 2500 -2500 0 -2500 0 0
-2500z m2763 1845 c750 -112 1349 -646 1538 -1370 79 -304 81 -634 4 -934
-169 -664 -684 -1180 -1341 -1345 -165 -41 -289 -56 -464 -56 -564 0 -1075
238 -1435 670 -277 333 -425 746 -425 1190 0 180 16 310 59 475 188 719 783
1253 1526 1369 125 19 410 20 538 1z"/>
<path d="M2225 4140 c-225 -40 -378 -96 -580 -213 -72 -42 -218 -148 -231
-168 -4 -7 193 -211 482 -500 l489 -489 7 82 c3 46 6 359 7 696 l1 612 -37 -1
c-21 0 -83 -9 -138 -19z"/>
<path d="M2615 3539 c-4 -343 -5 -653 -3 -687 l3 -64 486 479 c268 263 486
483 485 488 -7 30 -226 176 -381 253 -130 64 -355 127 -526 147 l-57 7 -7
-623z"/>
<path d="M3245 3104 l-500 -493 708 -1 707 0 0 23 c-1 42 -28 202 -49 282 -54
209 -152 412 -282 585 -31 42 -63 80 -70 87 -11 9 -114 -88 -514 -483z"/>
<path d="M1192 3529 c-142 -182 -246 -393 -303 -614 -21 -80 -48 -240 -49
-282 l0 -23 697 0 698 0 -490 490 c-269 270 -493 490 -497 490 -5 0 -29 -27
-56 -61z"/>
<path d="M840 2368 c1 -43 28 -203 49 -283 40 -155 104 -308 189 -450 40 -66
141 -205 150 -205 8 0 137 125 584 567 l397 393 -685 0 -684 0 0 -22z"/>
<path d="M3258 1898 l493 -493 36 40 c94 108 215 318 273 478 50 134 99 355
100 445 l0 22 -697 0 -698 0 493 -492z"/>
<path d="M1885 1764 l-499 -493 19 -22 c29 -31 160 -129 232 -172 195 -118
452 -205 684 -232 l57 -7 7 633 c4 349 5 668 3 710 l-3 76 -500 -493z"/>
<path d="M2607 2133 c-4 -54 -7 -367 -7 -697 l0 -599 68 7 c302 31 618 158
861 348 34 27 61 51 61 56 0 4 -220 227 -488 495 l-489 489 -6 -99z"/>
</g>
</svg>
